<svg xmlns="http://www.w3.org/2000/svg" viewBox="0 0 190 100">
  <!-- 13 alternating red/white stripes -->
  <rect width="190" height="100" fill="#fff"/>
  <rect width="190" height="7.69" y="0"    fill="#B22234"/>
  <rect width="190" height="7.69" y="15.38" fill="#B22234"/>
  <rect width="190" height="7.69" y="30.77" fill="#B22234"/>
  <rect width="190" height="7.69" y="46.15" fill="#B22234"/>
  <rect width="190" height="7.69" y="61.54" fill="#B22234"/>
  <rect width="190" height="7.69" y="76.92" fill="#B22234"/>
  <rect width="190" height="7.69" y="92.31" fill="#B22234"/>
  <!-- Blue canton -->
  <rect width="76" height="53.85" fill="#3C3B6E"/>
  <!-- Stars: simplified 3x2 grid of small white dots -->
  <g fill="#fff">
    <circle cx="9"  cy="9"  r="3"/>  <circle cx="19" cy="9"  r="3"/>
    <circle cx="29" cy="9"  r="3"/>  <circle cx="39" cy="9"  r="3"/>
    <circle cx="49" cy="9"  r="3"/>  <circle cx="59" cy="9"  r="3"/>
    <circle cx="69" cy="9"  r="3"/>
    <circle cx="14" cy="18" r="3"/>  <circle cx="24" cy="18" r="3"/>
    <circle cx="34" cy="18" r="3"/>  <circle cx="44" cy="18" r="3"/>
    <circle cx="54" cy="18" r="3"/>  <circle cx="64" cy="18" r="3"/>
    <circle cx="9"  cy="27" r="3"/>  <circle cx="19" cy="27" r="3"/>
    <circle cx="29" cy="27" r="3"/>  <circle cx="39" cy="27" r="3"/>
    <circle cx="49" cy="27" r="3"/>  <circle cx="59" cy="27" r="3"/>
    <circle cx="69" cy="27" r="3"/>
    <circle cx="14" cy="36" r="3"/>  <circle cx="24" cy="36" r="3"/>
    <circle cx="34" cy="36" r="3"/>  <circle cx="44" cy="36" r="3"/>
    <circle cx="54" cy="36" r="3"/>  <circle cx="64" cy="36" r="3"/>
    <circle cx="9"  cy="45" r="3"/>  <circle cx="19" cy="45" r="3"/>
    <circle cx="29" cy="45" r="3"/>  <circle cx="39" cy="45" r="3"/>
    <circle cx="49" cy="45" r="3"/>  <circle cx="59" cy="45" r="3"/>
    <circle cx="69" cy="45" r="3"/>
  </g>
</svg>
